<?xml version="1.0" standalone="no"?>
<!DOCTYPE svg PUBLIC "-//W3C//DTD SVG 20010904//EN"
 "http://www.w3.org/TR/2001/REC-SVG-20010904/DTD/svg10.dtd">
<svg version="1.0" xmlns="http://www.w3.org/2000/svg"
 width="512.000000pt" height="512.000000pt" viewBox="0 0 512.000000 512.000000"
 preserveAspectRatio="xMidYMid meet">

<g transform="translate(0.000000,512.000000) scale(0.100000,-0.100000)"
fill="#666666" stroke="none">
<path d="M2427 4244 c-4 -4 -7 -114 -7 -245 l0 -238 -37 -6 c-265 -44 -477
-151 -663 -335 -188 -184 -298 -387 -345 -632 -8 -44 -17 -84 -21 -89 -3 -5
-111 -9 -245 -9 l-239 0 0 -130 0 -130 239 0 c134 0 242 -4 245 -9 4 -5 13
-46 22 -91 41 -220 152 -435 309 -599 189 -198 422 -320 697 -366 l38 -6 2
-242 3 -242 135 0 135 0 3 243 c1 133 4 242 6 242 30 0 188 38 254 62 181 63
313 147 453 287 175 174 289 387 333 621 9 45 18 86 22 91 3 5 111 9 245 9
l239 0 0 130 0 130 -239 0 c-134 0 -242 4 -245 9 -4 5 -13 46 -22 91 -44 234
-158 447 -333 621 -140 140 -272 224 -453 287 -66 24 -224 62 -254 62 -2 0 -5
109 -6 243 l-3 242 -131 3 c-71 1 -133 -1 -137 -4z m332 -769 c341 -72 617
-338 708 -682 22 -82 26 -120 26 -233 0 -113 -4 -151 -26 -233 -88 -333 -341
-586 -674 -674 -140 -37 -326 -37 -465 0 -345 91 -606 362 -684 708 -23 99
-23 299 0 398 99 442 502 755 946 736 52 -2 128 -11 169 -20z"/>
<path d="M2440 3244 c-257 -50 -458 -227 -542 -479 -20 -60 -23 -90 -23 -205
0 -149 15 -214 78 -335 41 -80 191 -229 272 -272 119 -63 186 -78 335 -78 115
0 146 4 205 23 115 39 193 87 285 181 146 147 208 310 197 520 -10 187 -64
308 -202 447 -142 142 -260 194 -460 199 -66 2 -131 1 -145 -1z"/>
</g>
</svg>
